<svg width="138" height="153" viewBox="0 0 138 153" fill="none" xmlns="http://www.w3.org/2000/svg">
<path d="M15.5 99.375H30.75V137.5H122.25V15.5H30.75V53.625H15.5V7.875C15.5 5.85272 16.3033 3.91328 17.7333 2.48331C19.1633 1.05335 21.1027 0.25 23.125 0.25H129.875C131.897 0.25 133.837 1.05335 135.267 2.48331C136.697 3.91328 137.5 5.85272 137.5 7.875V145.125C137.5 147.147 136.697 149.087 135.267 150.517C133.837 151.947 131.897 152.75 129.875 152.75H23.125C21.1027 152.75 19.1633 151.947 17.7333 150.517C16.3033 149.087 15.5 147.147 15.5 145.125V99.375ZM61.25 68.875V46L99.375 76.5L61.25 107V84.125H0.25V68.875H61.25Z" fill="white"/>
</svg>
